<svg width="20" height="20" viewBox="0 0 20 20" fill="none" xmlns="http://www.w3.org/2000/svg">
<rect width="20" height="20" fill="white"/>
<path d="M13.2089 7.91164H12.1136C12.0504 7.91157 11.9879 7.89782 11.9304 7.87129C11.8728 7.84476 11.8215 7.80607 11.7799 7.7578L11.3356 7.24848C11.3027 7.21117 11.2625 7.18132 11.2175 7.16088C11.1725 7.14045 11.1238 7.12988 11.0745 7.12988C11.0253 7.12988 10.9765 7.14045 10.9315 7.16088C10.8866 7.18132 10.8463 7.21117 10.8135 7.24848L10.4327 7.68504C10.3713 7.75608 10.2958 7.81303 10.211 7.8521C10.1263 7.89117 10.0344 7.91147 9.94132 7.91164H3.94662C3.77379 8.41462 3.66441 8.93781 3.62109 9.46871H9.28002C9.32905 9.46864 9.37755 9.45848 9.4226 9.43882C9.46764 9.41917 9.50829 9.39044 9.54208 9.35437L10.0703 8.79516C10.103 8.76091 10.1421 8.73369 10.1854 8.71511C10.2287 8.69654 10.2752 8.687 10.3221 8.68706H10.3426C10.392 8.68728 10.4408 8.69794 10.4859 8.71834C10.531 8.73873 10.5715 8.76844 10.6047 8.80555L11.0489 9.31487C11.0905 9.36325 11.1418 9.40201 11.1994 9.42855C11.2569 9.45508 11.3194 9.46878 11.3827 9.46871H15.9995C15.9571 8.93767 15.8477 8.41435 15.6739 7.91164H13.2171H13.2089Z" fill="#7D7D7D"/>
<path d="M7.04629 12.7438C7.09528 12.7435 7.14371 12.7332 7.18873 12.7136C7.23374 12.6939 7.27441 12.6653 7.30835 12.6294L7.83453 12.0702C7.86742 12.0363 7.9066 12.0092 7.94982 11.9907C7.99303 11.9721 8.03943 11.9624 8.08635 11.9621H8.10887C8.15826 11.9624 8.20706 11.973 8.25217 11.9934C8.29728 12.0138 8.33773 12.0435 8.37094 12.0806L8.81317 12.5899C8.85499 12.638 8.90633 12.6766 8.96384 12.7031C9.02135 12.7296 9.08373 12.7434 9.14689 12.7438H15.4057C15.6442 12.246 15.8163 11.7182 15.9175 11.1742H9.90851C9.84583 11.174 9.7839 11.1604 9.72676 11.1342C9.66961 11.1081 9.61853 11.07 9.57684 11.0225L9.13256 10.5132C9.09978 10.4754 9.05947 10.4451 9.01429 10.4243C8.96911 10.4035 8.9201 10.3927 8.87049 10.3926C8.82115 10.3924 8.77236 10.4031 8.72748 10.424C8.6826 10.4448 8.64268 10.4752 8.61048 10.5132L8.22967 10.9497C8.16773 11.0204 8.09172 11.077 8.00667 11.1157C7.92162 11.1544 7.82945 11.1744 7.73625 11.1742H3.70703C3.80729 11.7195 3.97873 12.2487 4.21682 12.7479L7.04629 12.7438Z" fill="#7D7D7D"/>
<path d="M11.4854 6.20904C11.5347 6.20902 11.5836 6.19887 11.629 6.17923C11.6743 6.15958 11.7153 6.13083 11.7495 6.0947L12.2757 5.53757C12.3081 5.50284 12.3472 5.47517 12.3905 5.45624C12.4338 5.4373 12.4804 5.42748 12.5275 5.42739H12.55C12.5994 5.42724 12.6482 5.43795 12.6931 5.45876C12.7379 5.47957 12.7779 5.51 12.8101 5.54796L13.2543 6.05728C13.2965 6.10476 13.348 6.14279 13.4054 6.16892C13.4629 6.19505 13.5251 6.20871 13.5881 6.20904H14.7776C14.1989 5.42665 13.4489 4.7917 12.5868 4.3544C11.7247 3.9171 10.7743 3.68945 9.81066 3.68945C8.84702 3.68945 7.89659 3.9171 7.03453 4.3544C6.17248 4.7917 5.42245 5.42665 4.84375 6.20904H11.4854Z" fill="#7D7D7D"/>
<path d="M9.09401 14.3014H7.46636C7.40346 14.3013 7.34131 14.2875 7.28409 14.261C7.22688 14.2345 7.17593 14.1958 7.13468 14.1476L6.69245 13.6383C6.65943 13.6009 6.61902 13.571 6.57387 13.5506C6.52872 13.5301 6.47983 13.5195 6.43039 13.5195C6.38095 13.5195 6.33206 13.5301 6.28691 13.5506C6.24176 13.571 6.20135 13.6009 6.16833 13.6383L5.78547 14.0831C5.7242 14.1543 5.64866 14.2113 5.56391 14.2504C5.47917 14.2895 5.38717 14.3097 5.2941 14.3097H5.26953C5.85058 14.9426 6.55369 15.4473 7.3351 15.7923C8.11651 16.1374 8.9595 16.3155 9.81162 16.3155C10.6637 16.3155 11.5067 16.1374 12.2881 15.7923C13.0695 15.4473 13.7727 14.9426 14.3537 14.3097L9.09401 14.3014Z" fill="#7D7D7D"/>
</svg>
