<svg width="20" height="20" viewBox="0 0 20 20" fill="none" xmlns="http://www.w3.org/2000/svg">
<rect width="20" height="20" fill="white"/>
<path fill-rule="evenodd" clip-rule="evenodd" d="M4.59097 6.40827L9.34994 3.65955V3.66037C9.5308 3.55595 9.73597 3.50098 9.94481 3.50098C10.1537 3.50098 10.3588 3.55595 10.5397 3.66037L15.3042 6.41473C15.4848 6.51913 15.6347 6.66916 15.739 6.84978C15.8433 7.03041 15.8983 7.23528 15.8985 7.44386L15.9014 12.9473C15.9015 13.1563 15.8466 13.3615 15.7421 13.5425C15.6377 13.7234 15.4875 13.8737 15.3066 13.9781L10.5476 16.726C10.3667 16.8304 10.1615 16.8854 9.9527 16.8854C9.74386 16.8854 9.53871 16.8304 9.35785 16.726L5.79012 14.6636C5.81157 14.6695 5.82599 14.6604 5.83906 14.6352C5.8448 14.6243 5.85129 14.6137 5.85779 14.6032C5.86 14.5996 5.86221 14.596 5.8644 14.5923C6.8393 12.9843 7.8141 11.3762 8.7888 9.76804C9.2489 9.00948 9.70844 8.25071 10.1674 7.49174C10.1768 7.4675 10.1935 7.44673 10.2151 7.43225C10.2368 7.41776 10.2623 7.41024 10.2883 7.41071C10.7302 7.41123 11.1719 7.40932 11.6136 7.40741C11.7804 7.40669 11.9472 7.40596 12.1139 7.40537C12.1157 7.40537 12.1175 7.40528 12.1193 7.40519C12.1301 7.40462 12.1421 7.404 12.1528 7.42271C12.1475 7.43217 12.1421 7.44207 12.1365 7.45224C12.1243 7.47437 12.1114 7.49778 12.0978 7.52076C10.6738 9.93614 9.24993 12.3516 7.82634 14.7672C7.80297 14.7954 7.78692 14.8289 7.77959 14.8648C7.80657 14.902 7.8436 14.9308 7.88636 14.9478C8.50701 15.3024 9.12651 15.6585 9.74491 16.0163C9.81215 16.0597 9.8905 16.0828 9.97054 16.0828C10.0506 16.0828 10.129 16.0597 10.1962 16.0163C10.616 15.7729 11.0356 15.5292 11.4551 15.2852C11.5895 15.2201 11.7167 15.141 11.8346 15.0493C11.8536 15.0038 11.8307 14.9687 11.8086 14.9349C11.8055 14.9302 11.8024 14.9255 11.7995 14.9208C11.705 14.7692 11.6087 14.6189 11.5123 14.4685C11.4832 14.4232 11.4542 14.3778 11.4251 14.3324C11.2734 14.0948 11.1222 13.8569 10.9712 13.619C10.6752 13.1531 10.3793 12.6873 10.0789 12.2242C10.0592 12.1995 10.0478 12.1692 10.0463 12.1377C10.0448 12.1061 10.0533 12.0749 10.0706 12.0485C10.2537 11.7414 10.4352 11.4334 10.6168 11.1254C10.7692 10.8668 10.9217 10.6082 11.0751 10.3501C11.1216 10.272 11.1295 10.2726 11.1791 10.3501C11.4179 10.7238 11.6555 11.0986 11.8929 11.4733C12.0395 11.7047 12.1861 11.9361 12.333 12.1671C12.4574 12.3628 12.5814 12.5587 12.7055 12.7545C12.9547 13.1479 13.2039 13.5413 13.4553 13.9334C13.4601 13.9409 13.4647 13.9488 13.4694 13.9566C13.4915 13.9941 13.5142 14.0325 13.5629 14.0447C13.672 14.0065 13.7751 13.9527 13.8688 13.885C13.8807 13.8788 13.8931 13.8731 13.9055 13.8674C13.9529 13.8455 14.0014 13.8233 14.0275 13.7714C14.0266 13.7245 14.0094 13.6794 13.9789 13.6438C13.8142 13.3785 13.6498 13.1129 13.4857 12.847L12.2696 10.8798C12.0324 10.4952 11.7948 10.1107 11.5567 9.72661C11.5357 9.70313 11.5227 9.67361 11.5196 9.64229C11.5164 9.61097 11.5232 9.57945 11.5391 9.55225C11.8278 9.06288 12.1167 8.57362 12.4058 8.08445C12.4506 8.00845 12.4587 8.00948 12.5034 8.08025C12.6283 8.27803 12.7552 8.47477 12.882 8.67148C12.9497 8.77641 13.0173 8.88133 13.0847 8.9864C13.661 9.88008 14.2353 10.7749 14.8078 11.671C14.8251 11.6981 14.8423 11.7254 14.8595 11.7526C14.9132 11.8379 14.9669 11.9232 15.0252 12.0052C15.0281 12.0093 15.031 12.0141 15.0341 12.0191C15.0505 12.0463 15.0704 12.0794 15.1137 12.0376C15.1245 12.0026 15.1284 11.9659 15.1254 11.9294C15.1266 10.4464 15.1266 8.9635 15.1254 7.48056C15.1302 7.39514 15.1103 7.31015 15.0683 7.23563C15.0263 7.16112 14.9638 7.10019 14.8883 7.06004C14.8629 7.04586 14.8379 7.031 14.813 7.01614C14.7923 7.00381 14.7715 6.99148 14.7506 6.97953C14.1045 6.60921 13.4588 6.23823 12.8134 5.86661C12.5701 5.72659 12.3266 5.58693 12.0831 5.44727C11.47 5.09568 10.8569 4.74406 10.2476 4.38651C10.1605 4.32808 10.058 4.29688 9.95311 4.29688C9.84824 4.29688 9.74576 4.32808 9.65867 4.38651C9.30498 4.59665 8.94847 4.80201 8.59194 5.00738C8.48178 5.07083 8.37162 5.13429 8.26153 5.19789C7.91032 5.4008 7.55949 5.60442 7.20866 5.80803C6.5157 6.21022 5.82272 6.61241 5.12677 7.00917C5.02028 7.05925 4.93125 7.14014 4.87123 7.24137C4.81122 7.3426 4.78299 7.45951 4.79015 7.57697C4.79678 8.58989 4.79588 9.60286 4.79498 10.6159C4.79467 10.9661 4.79436 11.3164 4.79436 11.6667C4.79223 11.7066 4.79317 11.7465 4.79722 11.7862C4.79796 11.7908 4.79836 11.7958 4.79876 11.8009C4.80067 11.8247 4.80272 11.8503 4.84041 11.8503C4.84471 11.8439 4.84905 11.8375 4.85339 11.8311C4.86211 11.8183 4.87082 11.8055 4.87917 11.7925C5.67787 10.5599 6.47356 9.32544 7.26624 8.08907C7.42489 7.83689 7.66233 7.64412 7.94172 7.54066C8.24851 7.42894 8.57375 7.37653 8.9001 7.3862C9.06789 7.38768 9.23583 7.39333 9.40377 7.39899C9.46836 7.40116 9.53294 7.40334 9.59752 7.40527C9.60009 7.40536 9.6028 7.40522 9.60557 7.40508C9.61868 7.40439 9.63311 7.40364 9.64081 7.42701L5.30397 14.3826L4.59332 13.9718C4.41274 13.8674 4.26278 13.7173 4.15848 13.5367C4.05418 13.356 3.99921 13.1511 3.99907 12.9425L3.99609 7.43904C3.99602 7.23012 4.05095 7.02488 4.15537 6.84393C4.2598 6.66299 4.41005 6.51273 4.59097 6.40827Z" fill="#7D7D7D"/>
</svg>
