<svg width="20" height="20" viewBox="0 0 20 20" fill="none" xmlns="http://www.w3.org/2000/svg">
<rect width="20" height="20" fill="white"/>
<path d="M5.2288 14.9745H7.16823H7.16825C7.62487 14.9745 7.85317 14.9745 8.05693 14.9181C8.28034 14.8518 8.4841 14.7341 8.6535 14.5721C8.80906 14.424 8.92132 14.2277 9.14276 13.8404L9.14289 13.8402L9.1494 13.8288L11.6648 9.38525C11.8882 8.99517 11.9987 8.7989 12.0478 8.59282C12.1018 8.36956 12.1018 8.13404 12.0478 7.91078C11.999 7.70626 11.8874 7.5114 11.6674 7.12713L11.6623 7.11836L10.6779 5.40102C10.4741 5.04283 10.371 4.86374 10.2409 4.7975C10.101 4.72635 9.93402 4.72635 9.79408 4.7975C9.66397 4.86374 9.56087 5.04283 9.3571 5.40102L4.56841 13.8361C4.36711 14.1894 4.26644 14.3661 4.27382 14.5108C4.28364 14.6678 4.36465 14.8101 4.49722 14.896C4.61996 14.9745 4.82127 14.9745 5.2288 14.9745Z" fill="#7D7D7D"/>
<path d="M14.8449 14.9745H12.0659C11.6559 14.9745 11.4497 14.9745 11.3294 14.896C11.1969 14.8101 11.1159 14.6655 11.106 14.5084C11.0987 14.3648 11.2002 14.1898 11.4032 13.8396L11.4032 13.8395L11.408 13.8313L12.7951 11.4515C12.9988 11.1007 13.1019 10.9265 13.2296 10.8603C13.3695 10.7891 13.5341 10.7891 13.6739 10.8603C13.8007 10.9248 13.8994 11.0916 14.0948 11.4218L14.0951 11.4223L14.1109 11.4491L15.5029 13.8288L15.523 13.8634L15.523 13.8635C15.716 14.1962 15.8144 14.366 15.8074 14.506C15.7999 14.6629 15.7165 14.8077 15.584 14.8936C15.4611 14.9745 15.2549 14.9745 14.8449 14.9745H14.8449Z" fill="#7D7D7D"/>
</svg>
