<svg width="20" height="20" viewBox="0 0 20 20" fill="none" xmlns="http://www.w3.org/2000/svg">
<rect width="20" height="20" fill="white"/>
<path d="M6.16266 5.18815L10.0001 3L13.8375 5.18815L12.4266 5.99651L10.0001 4.61672L7.57336 5.99651L6.16266 5.18815ZM13.8375 7.94774L12.4266 7.13936L10.0001 8.5192L7.57336 7.13936L6.16266 7.94774V9.56448L8.58922 10.9442V13.7038L10.0001 14.5122L11.4109 13.7038V10.9442L13.8375 9.56448V7.94774ZM13.8375 12.324V10.7073L12.4266 11.5156V13.1324L13.8375 12.324ZM14.8392 12.8955L12.4126 14.2752V15.8919L16.25 13.7038V9.32757L14.8392 10.1358V12.8955ZM13.4283 6.5679L14.8392 7.37628V8.99302L16.25 8.18465V6.5679L14.8392 5.75957L13.4283 6.5679ZM8.58922 14.8606V16.4773L10.0001 17.2857L11.4109 16.4773V14.8606L10.0001 15.669L8.58922 14.8606ZM6.16266 12.324L7.57336 13.1324V11.5156L6.16266 10.7073V12.324ZM8.58922 6.5679L10.0001 7.37628L11.4109 6.5679L10.0001 5.75957L8.58922 6.5679ZM5.16085 7.37628L6.5717 6.5679L5.16085 5.75957L3.75 6.5679V8.18465L5.16085 8.99302V7.37628ZM5.16085 10.1358L3.75 9.32757V13.7038L7.58756 15.8919V14.2752L5.16085 12.8955V10.1358Z" fill="#7D7D7D"/>
</svg>
