<svg width="80" height="80" viewBox="0 0 80 80" fill="none" xmlns="http://www.w3.org/2000/svg">
<path d="M78.8027 49.677C73.4597 71.1057 51.7536 84.147 30.3201 78.8032C8.89527 73.4607 -4.14737 51.7557 1.1982 30.3282C6.53877 8.89699 28.2448 -4.14551 49.6721 1.19699C71.1044 6.53949 84.1458 28.247 78.8027 49.677Z" fill="#2F46F4"/>
<path d="M55.9713 30.7779C55.4506 25.4214 50.8244 23.6304 44.9854 23.1251L44.9774 15.6944L40.4545 15.6997L40.4624 22.9345C39.2733 22.9359 38.0579 22.9607 36.8504 22.986L36.8434 15.7033L32.3228 15.7079L32.329 23.1365C31.3498 23.1575 30.3881 23.1767 29.4504 23.1783L29.4498 23.1553L23.2115 23.1598L23.2178 27.9905C23.2178 27.9905 26.5578 27.9233 26.5023 27.9848C28.3344 27.9834 28.9318 29.0464 29.1062 29.964L29.1155 38.4291C29.2419 38.4297 29.4069 38.4348 29.5936 38.4601C29.4429 38.4605 29.2817 38.4597 29.1158 38.4613L29.1272 50.32C29.0474 50.8967 28.7095 51.8164 27.4295 51.8199C27.4874 51.8711 24.1416 51.8225 24.1416 51.8225L23.2486 57.2251L29.1347 57.2187C30.23 57.2188 31.3078 57.2362 32.3659 57.2419L32.3757 64.7571L36.8938 64.7531L36.8858 57.3172C38.1264 57.3416 39.327 57.3502 40.499 57.3479L40.5049 64.7494L45.0279 64.7442L45.0214 57.2423C52.625 56.7979 57.9451 54.8766 58.5984 47.7352C59.1259 41.9847 56.4185 39.422 52.1009 38.39C54.7218 37.0519 56.3589 34.6974 55.9713 30.7779ZM49.6603 46.854C49.6688 52.4702 40.0517 51.8416 36.9863 51.8477L36.9769 41.8904C40.0432 41.8879 49.6545 40.9962 49.6603 46.854ZM47.5419 32.8079C47.5459 37.9175 39.5253 37.3297 36.972 37.3326L36.9627 28.3018C39.516 28.2989 47.5357 27.4784 47.5419 32.8079Z" fill="white"/>
</svg>
