<svg width="20" height="20" viewBox="0 0 20 20" fill="none" xmlns="http://www.w3.org/2000/svg">
<rect width="20" height="20" fill="white"/>
<path d="M6.2106 13.4548C5.43652 13.4548 4.80233 13.2727 4.30797 12.9084C3.8201 12.5377 3.57617 12.0108 3.57617 11.3278C3.57617 11.1847 3.59245 11.009 3.62495 10.8009C3.70955 10.3325 3.82988 9.76986 3.98598 9.11289C4.4283 7.32409 5.5699 6.42969 7.41075 6.42969C7.91162 6.42969 8.36043 6.51424 8.75724 6.68334C9.15405 6.84595 9.46626 7.09316 9.69392 7.42492C9.92157 7.75012 10.0355 8.14044 10.0355 8.59575C10.0355 8.73235 10.0192 8.90473 9.98663 9.11289C9.88907 9.6918 9.77197 10.2545 9.63537 10.8009C9.40771 11.692 9.01417 12.3588 8.45476 12.8011C7.89534 13.2369 7.14732 13.4548 6.2106 13.4548ZM6.3472 12.0498C6.71151 12.0498 7.02044 11.9425 7.27415 11.7278C7.53436 11.5132 7.71974 11.1847 7.83029 10.7424C7.9799 10.1309 8.09377 9.59748 8.17183 9.14216C8.19783 9.00556 8.21083 8.86573 8.21083 8.72258C8.21083 8.13066 7.90184 7.83468 7.28393 7.83468C6.91962 7.83468 6.60741 7.942 6.3472 8.15666C6.09354 8.37137 5.91139 8.69985 5.80084 9.14216C5.68373 9.57798 5.56663 10.1114 5.44958 10.7424C5.42352 10.8724 5.41052 11.009 5.41052 11.1521C5.41052 11.7506 5.72278 12.0498 6.3472 12.0498Z" fill="#7D7D7D"/>
<path d="M10.4859 13.3574C10.4143 13.3574 10.359 13.3346 10.32 13.2891C10.2875 13.237 10.2777 13.1785 10.2907 13.1135L11.6372 6.77128C11.6502 6.69972 11.686 6.64117 11.7445 6.59562C11.8031 6.55012 11.8649 6.52734 11.9299 6.52734H14.5254C15.2474 6.52734 15.8263 6.67695 16.2621 6.97616C16.7045 7.27542 16.9256 7.70795 16.9256 8.27387C16.9256 8.43647 16.9061 8.60563 16.8671 8.78123C16.7045 9.5293 16.376 10.0822 15.8816 10.44C15.3938 10.7977 14.7237 10.9766 13.8716 10.9766H12.5544L12.1056 13.1135C12.0925 13.185 12.0568 13.2435 11.9983 13.2891C11.9397 13.3346 11.8779 13.3574 11.8129 13.3574H10.4859ZM13.9399 9.63013C14.2131 9.63013 14.4505 9.5553 14.6522 9.4057C14.8603 9.2561 14.9969 9.04144 15.062 8.76173C15.0815 8.65113 15.0913 8.55358 15.0913 8.46902C15.0913 8.28037 15.036 8.13726 14.9254 8.03971C14.8148 7.93561 14.6262 7.88361 14.3595 7.88361H13.1886L12.8178 9.63013H13.9399Z" fill="#7D7D7D"/>
</svg>
