<svg width="20" height="20" viewBox="0 0 20 20" fill="none" xmlns="http://www.w3.org/2000/svg">
<rect width="20" height="20" fill="white"/>
<path d="M13.306 7.80425C13.0813 7.67589 12.7925 7.67589 12.5358 7.80425L10.7388 8.8632L9.5194 9.53708L7.75448 10.596C7.52985 10.7244 7.24104 10.7244 6.98433 10.596L5.60448 9.76171C5.37985 9.63335 5.2194 9.37664 5.2194 9.08783V7.48335C5.2194 7.22664 5.34776 6.96992 5.60448 6.80947L6.98433 6.00723C7.20896 5.87887 7.49776 5.87887 7.75448 6.00723L9.13433 6.84156C9.35896 6.96992 9.5194 7.22664 9.5194 7.51544V8.5744L10.7388 7.86843V6.77738C10.7388 6.52067 10.6104 6.26395 10.3537 6.1035L7.78657 4.59529C7.56194 4.46693 7.27313 4.46693 7.01642 4.59529L4.38507 6.13559C4.12836 6.26395 4 6.52067 4 6.77738V9.7938C4 10.0505 4.12836 10.3072 4.38507 10.4677L6.98433 11.9759C7.20896 12.1042 7.49776 12.1042 7.75448 11.9759L9.5194 10.949L10.7388 10.2431L12.5037 9.21619C12.7284 9.08783 13.0172 9.08783 13.2739 9.21619L14.6537 10.0184C14.8784 10.1468 15.0388 10.4035 15.0388 10.6923V12.2968C15.0388 12.5535 14.9104 12.8102 14.6537 12.9707L13.306 13.7729C13.0813 13.9013 12.7925 13.9013 12.5358 13.7729L11.156 12.9707C10.9313 12.8423 10.7709 12.5856 10.7709 12.2968V11.2699L9.55149 11.9759V13.0348C9.55149 13.2916 9.67985 13.5483 9.93657 13.7087L12.5358 15.2169C12.7604 15.3453 13.0493 15.3453 13.306 15.2169L15.9052 13.7087C16.1299 13.5804 16.2903 13.3237 16.2903 13.0348V9.98634C16.2903 9.72962 16.1619 9.4729 15.9052 9.31246L13.306 7.80425Z" fill="#7D7D7D"/>
</svg>
